<svg viewBox="0 0 212 58" xmlns="http://www.w3.org/2000/svg">
  <defs><linearGradient id="lg" x1="0" y1="0" x2="0" y2="1">
    <stop offset="0" stop-color="#4f8cff"/><stop offset="1" stop-color="#8a5cff"/></linearGradient></defs>
  <g fill="none" stroke="url(#lg)" stroke-width="6" stroke-linecap="round" stroke-linejoin="round">
    <!-- E -->
    <path d="M26 9 H9 V47 H26 M9 28 H22"/>
    <!-- d  (stem; bowl is the basketball below) -->
    <path d="M46 9 V47"/>
    <!-- g  (descender; bowl is the football) -->
    <path d="M75 36 Q76 56 60 56 Q52 56 52 50"/>
    <!-- e -->
    <path d="M84 38 H104 M104 38 Q104 26 94 26 Q84 26 84 36 Q84 46 94 46 Q101 46 103 42"/>
    <!-- L -->
    <path d="M118 9 V47 H139"/>
    <!-- a  (stem; bowl is the soccer ball) -->
    <path d="M165 26 V47"/>
    <!-- b  (stem; bowl is the baseball) -->
    <path d="M178 9 V47"/>
  </g>

  <!-- d: basketball -->
  <circle cx="34" cy="37" r="10" fill="#e0822e"/>
  <g fill="none" stroke="#7a3d12" stroke-width="1.5"><path d="M34 27 V47"/><path d="M25 32 Q34 38 43 32"/><path d="M25 42 Q34 36 43 42"/></g>
  <!-- g: football -->
  <ellipse cx="64" cy="36" rx="11" ry="9" fill="#7c4a22"/>
  <g stroke="#fff" stroke-width="1.5" stroke-linecap="round"><path d="M64 31 V41"/><path d="M59 34 H69"/><path d="M59 39 H69"/></g>
  <!-- a: soccer ball -->
  <circle cx="153" cy="37" r="10" fill="#fff" stroke="#15233f" stroke-width="1.8"/>
  <path d="M153 31 l4.6 3.3 -1.8 5.4 -5.6 0 -1.8 -5.4 z" fill="#15233f"/>
  <g stroke="#15233f" stroke-width="1.1" fill="none"><path d="M153 28 V31"/><path d="M145 34 l4.3 2.4"/><path d="M161 34 l-4.3 2.4"/></g>
  <!-- b: baseball -->
  <circle cx="190" cy="37" r="10" fill="#fff" stroke="#15233f" stroke-width="1.8"/>
  <g fill="none" stroke="#d23b34" stroke-width="1.6"><path d="M183 31 Q188 37 183 43"/><path d="M197 31 Q192 37 197 43"/></g>
</svg>
