<svg viewBox="0 0 340 72" xmlns="http://www.w3.org/2000/svg">
  <defs>
    <linearGradient id="g" x1="0" y1="0" x2="1" y2="1"><stop offset="0" stop-color="#4f8cff"/><stop offset="1" stop-color="#8a5cff"/></linearGradient>
    <linearGradient id="liq" x1="0" y1="0" x2="0" y2="1"><stop offset="0" stop-color="#5b9bff"/><stop offset="1" stop-color="#8a5cff"/></linearGradient>
  </defs>
  <!-- EL mark -->
  <g transform="translate(2,8) scale(0.56)">
    <path d="M44 28 H27 M44 50 H31 M44 72 H27 M27 28 L17 50 L27 72" fill="none" stroke="url(#g)" stroke-width="8" stroke-linecap="round" stroke-linejoin="round"/>
    <path d="M59 30 H73 q4 0 4 4 V58 H86 q4 0 4 4 V73 q0 4 -4 4 H59 q-4 0 -4 -4 V34 q0 -4 4 -4 Z" fill="#14203c"/>
    <path d="M55 54 q5.5 -3.5 11 0 q5.5 3.5 11 0 V58 H86 q4 0 4 4 V73 q0 4 -4 4 H59 q-4 0 -4 -4 Z" fill="url(#liq)"/>
    <path d="M59 30 H73 q4 0 4 4 V58 H86 q4 0 4 4 V73 q0 4 -4 4 H59 q-4 0 -4 -4 V34 q0 -4 4 -4 Z" fill="none" stroke="url(#g)" stroke-width="3.5"/>
    <path d="M53 30 H79" stroke="url(#g)" stroke-width="5" stroke-linecap="round"/>
    <circle cx="66" cy="39" r="2.6" fill="#9cc2ff"/><circle cx="63" cy="47" r="1.8" fill="#9cc2ff"/>
  </g>
  <text x="70" y="50" font-family="'Segoe UI',Roboto,system-ui,Arial,sans-serif" font-weight="800" font-size="44" letter-spacing="0.5">
    <tspan fill="url(#g)">EdgeLabs</tspan>
  </text>
</svg>
