<svg xmlns="http://www.w3.org/2000/svg" viewBox="0 0 512 512">
  <defs>
    <linearGradient id="bg" x1="0" y1="0" x2="1" y2="1">
      <stop offset="0" stop-color="#2563eb"/><stop offset="0.55" stop-color="#1e3a8a"/><stop offset="1" stop-color="#0a1838"/>
    </linearGradient>
    <radialGradient id="glow" cx="0.5" cy="0.42" r="0.55">
      <stop offset="0" stop-color="#67b0ff" stop-opacity="0.6"/><stop offset="1" stop-color="#67b0ff" stop-opacity="0"/>
    </radialGradient>
    <linearGradient id="ball" x1="0.3" y1="0" x2="0.7" y2="1">
      <stop offset="0" stop-color="#ffffff"/><stop offset="1" stop-color="#cfe0f5"/>
    </linearGradient>
  </defs>
  <rect width="512" height="512" rx="116" fill="url(#bg)"/>
  <!-- motion arc -->
  <path d="M70 372 A210 210 0 0 1 442 372" fill="none" stroke="#67b0ff" stroke-width="10" stroke-linecap="round" opacity="0.35"/>
  <circle cx="256" cy="246" r="205" fill="url(#glow)"/>
  <circle cx="256" cy="256" r="150" fill="url(#ball)" stroke="#16306e" stroke-width="6"/>
  <polygon points="256,210 299.7,241.8 283,293.2 229,293.2 212.3,241.8" fill="#16306e"/>
  <g stroke="#16306e" stroke-width="10" stroke-linecap="round">
    <line x1="256" y1="210" x2="256" y2="142"/>
    <line x1="299.7" y1="241.8" x2="362" y2="220"/>
    <line x1="283" y1="293.2" x2="322" y2="348"/>
    <line x1="229" y1="293.2" x2="190" y2="348"/>
    <line x1="212.3" y1="241.8" x2="150" y2="220"/>
  </g>
  <g fill="#16306e">
    <circle cx="256" cy="130" r="14"/><circle cx="374" cy="216" r="14"/>
    <circle cx="329" cy="358" r="14"/><circle cx="183" cy="358" r="14"/><circle cx="138" cy="216" r="14"/>
  </g>
  <ellipse cx="214" cy="206" rx="48" ry="27" fill="#ffffff" opacity="0.5"/>
  <text x="256" y="476" text-anchor="middle" font-family="Arial Black, Arial, sans-serif" font-size="58" font-weight="900" fill="#dbe9ff" letter-spacing="6">2026</text>
</svg>
